# xmcd
# 
# Track frame offsets:
#     150
#     8375
#     14745
#     25995
#     36267
#     42557
#     52637
#     60889
#     73140
#     83220
#     92947
#     103690
#     114717
#     123175
#     129255
#     134827
#     154067
#     161335
#     170387
#     177745
#     188860
#     198400
# 
# Disc length: 2793
# 
# Revision: 0
# Processed by: cddbd v1.5.2PL0 Copyright (c) Steve Scherf et al.
# Submitted via: BonkEnc v1.0.8
# 
DISCID=2b0ae716
DTITLE=Sons Of The Pioneers - Live At The Lucky-U-Ranch
DYEAR=2001
DGENRE=Country
TTITLE0=When Pay Day Rolls Around
TTITLE1=Texas Plains
TTITLE2=Song Of The Bandit
TTITLE3=Sweet Betsy From Pike
TTITLE4=Grab Your Saddle Horn And Blow
TTITLE5=What This Country Needs
TTITLE6=Cool Water
TTITLE7=Chant Of The Plains
TTITLE8=Tumbleweed Trail
TTITLE9=San Antonio Rose
TTITLE10=Dialogue With Bob Nolan and Tommy Doss
TTITLE11=Hillbilly Wedding In June
TTITLE12=Cool Water
TTITLE13=Song Of The Trail
TTITLE14=Narration - Stan Jones
TTITLE15=Ghost Riders In The Sky
TTITLE16=Alabama Jubilee
TTITLE17=Song Of The Rover
TTITLE18=Round-Up Time Is Over
TTITLE19=Strawberry Roan
TTITLE20=I Follow The Stream
TTITLE21=Whoopie Ti Yi Yo
EXTD=
EXTT0=
EXTT1=
EXTT2=
EXTT3=
EXTT4=
EXTT5=
EXTT6=
EXTT7=
EXTT8=
EXTT9=
EXTT10=
EXTT11=
EXTT12=
EXTT13=
EXTT14=
EXTT15=
EXTT16=
EXTT17=
EXTT18=
EXTT19=
EXTT20=
EXTT21=
PLAYORDER=
